<?xml version="1.0" encoding="UTF-8" standalone="no"?>
<!DOCTYPE svg PUBLIC "-//W3C//DTD SVG 1.1//EN" "http://www.w3.org/Graphics/SVG/1.1/DTD/svg11.dtd">
<svg width="100%" height="100%" viewBox="0 0 270 270" version="1.1" xmlns="http://www.w3.org/2000/svg" xmlns:xlink="http://www.w3.org/1999/xlink" xml:space="preserve" style="fill-rule:evenodd;clip-rule:evenodd;stroke-linejoin:round;stroke-miterlimit:1.41421;">
    <g transform="matrix(1,0,0,1,-15.1019,-15.1019)">
        <path d="M62.3,282.3C37.7,282.3 17.7,262.3 17.7,237.7L17.7,62.3C17.7,37.7 37.7,17.7 62.3,17.7L237.8,17.7C262.4,17.7 282.4,37.7 282.4,62.3L282.4,237.8C282.4,262.4 262.4,282.4 237.8,282.4L62.3,282.4L62.3,282.3Z" style="fill:rgb(105,105,105);fill-rule:nonzero;stroke-width:3px;stroke:rgb(42,42,42);"/>
    </g>
    <g transform="matrix(1,0,0,1,-4.88511,-14.908)">
        <path d="M187.6,193.5C187.1,187 186.4,180.8 186.3,174.6C186.3,173.3 186.2,172.1 186,171.1L185.8,168.3L185.9,168.3C185.3,159.3 184.7,150.3 184.2,141.4C182.8,119.6 181.4,97.9 180,76.2C174.4,76.2 169,76.2 163.3,76.2C164.5,98.1 165.8,119.9 167,141.7L166.9,141.7L169,177.2C169.1,178.4 169.1,179.6 169.2,180.8C168.7,180.9 168.3,181 167.8,181C167.5,179.9 167.1,178.9 166.8,177.8C165,171.3 163.3,164.8 161.5,158.3L157.1,141.9C151.2,120.1 145.3,98.3 139.5,76.6C139,74.6 138.2,74 136.1,74C119.5,74.1 102.8,74 86.2,74.1C81.2,74.2 76.3,75 71.4,75.6C67.5,76.1 64.9,78.4 63.8,82C63,84.4 62.5,87 62.5,89.5C62.4,105.5 62.4,121.4 62.4,137.4L62.4,148.7C54.1,148.7 46.3,148.7 38.5,148.7C38.5,173.3 38.5,197.5 38.5,222C47.4,222 56,222 64.5,222C64.7,222.6 64.9,222.9 65,223.2C67.7,234.3 77,242.2 87.9,242.6C99.4,243 109.5,235.9 112.6,224.8C113.3,222.2 114.5,221.9 116.7,221.9C130.6,222 144.4,221.9 158.3,221.9C160.2,221.9 162,221.9 163.8,221.9C167.6,238.2 180.7,243.4 190.7,242.4C202.5,241.2 212.1,231.4 212.8,220.3C213.2,214 211.9,208.1 208,203.1C202.9,196.8 196.3,193.1 187.6,193.5ZM55,216.2C51.9,216.2 49.1,216.2 46,216.2C46,195.7 46,175.2 46,154.5C48.9,154.5 51.8,154.5 55,154.5C55,175 55,195.4 55,216.2ZM88.9,233C80.8,233 74.1,226.4 74.1,218.3C74,210 81.1,202.7 89.1,202.9C97.2,203 104.1,209.9 104.1,218C104.2,226.4 97.5,233 88.9,233ZM153.6,152.6L156,161.3C155.9,161.3 155.8,161.2 155.7,161.2L147.2,144.6C144.6,139.5 142,134.3 139.3,129C140.4,128.3 141.6,127.9 142.3,127C142.9,126.3 143.3,124.9 142.9,124.3C142.4,123.5 140.8,122.7 140.3,122.9C135.8,125 131.4,127.4 127.1,129.9C126.6,130.2 126.4,132 126.7,132.8C127,133.5 128.5,134 129.3,133.8C130.8,133.5 132.1,132.6 133.8,131.7C135.3,134.7 136.8,137.6 138.3,140.5C139.4,142.8 140.6,145 141.7,147.3L144.2,152.3C145.6,155.1 147.1,158 148.5,160.8L151.1,166L151.2,166C151.8,167.1 153.4,168.1 154.7,168.2C157.2,168.5 159.8,168.1 162.6,168.6C160.4,168.8 158.3,169.3 156.1,169.3C147.4,169.4 138.6,169.3 129.9,169.4C129.4,169.4 129,169.4 128.5,169.4L128.5,169.2C128.5,157.2 118.8,147.5 106.8,147.5L74.3,147.5L74.3,136C74.3,121.3 74.3,106.5 74.3,91.8C74.3,87.6 75.8,85.7 80,85C83.7,84.4 87.5,83.9 91.2,83.9C104.2,83.8 117.2,83.9 130.1,83.8C132.7,83.8 133.9,84.3 134.7,87.1C140.1,106 145.6,124.9 151.2,143.8L152.2,147.2M188.6,232.9C180.4,232.8 173.6,226 173.8,217.8C174,207.5 181,203.2 188.3,203C196.4,202.7 203.6,210.3 203.5,218.3C203.3,226.4 196.6,233 188.6,232.9Z" style="fill:white;fill-rule:nonzero;"/>
        <path d="M261.2,141.8C240.8,141.3 220.5,140.8 200,140.3C197.4,112.5 194.9,84.9 192.4,57.2C190.2,57.2 188.5,57.2 186.9,57.2C184.7,57.3 183.5,58.2 183.8,60.7C184.6,67.7 185.3,74.8 186,81.8C187.3,94 188.6,106.2 189.8,118.5C191,129.8 192,141.2 193.2,152.9C199.3,152 204.9,151 210.6,150.2C216.4,149.4 222.2,148.7 228,147.9C233.7,147.1 239.4,146.5 245.1,145.5C250.6,144.5 256.3,144.6 261.6,142.8C261.3,142.5 261.3,142.1 261.2,141.8Z" style="fill:rgb(140,173,231);fill-rule:nonzero;"/>
        <path d="M89.2,205.6C82.5,205.4 76.5,211.1 76.5,217.8C76.4,224.6 81.9,230.4 88.6,230.7C95.4,231 101.4,225.3 101.6,218.4C101.8,211.4 96.3,205.8 89.2,205.6ZM89.2,228.4C83.3,228.4 78.7,223.9 78.6,218C78.5,212.9 83.9,207.6 89.2,207.6C94.6,207.6 99.6,212.7 99.6,218.1C99.6,223.7 94.9,228.4 89.2,228.4Z" style="fill:rgb(140,173,231);fill-rule:nonzero;"/>
        <path d="M188.2,207.6C182.8,207.6 178,212.5 178,218.1C178,223.9 182.4,228.3 188.2,228.3C194,228.3 198.5,223.9 198.6,218.1C198.7,212.5 193.9,207.6 188.2,207.6Z" style="fill:white;fill-rule:nonzero;"/>
        <path d="M88.8,214.1C86.3,214.2 85,215.6 85,218.2C85.1,220.9 86.6,222.2 89.2,222.1C91.7,222 92.9,220.5 93,218.1C93,215.3 91.5,214 88.8,214.1Z" style="fill:white;fill-rule:nonzero;"/>
        <g transform="matrix(1.88303,0,0,0.983843,-57.2791,17.225)">
            <path d="M70.399,143.4L70.513,185.087L120.799,185.131L70.399,143.4Z" style="fill:rgb(192,196,215);"/>
        </g>
    </g>
</svg>
